<svg width="16" height="16" viewBox="0 0 16 16" fill="none" xmlns="http://www.w3.org/2000/svg">
<path d="M1 7.12512C1.21425 5.42412 2.04531 3.8609 3.33556 2.73194C4.6258 1.60297 6.28551 0.986775 7.99989 1.00022C9.13217 1.00142 10.2472 1.27727 11.2495 1.80412C12.2517 2.33096 13.1112 3.09307 13.7542 4.02506C14.3972 4.95706 14.8045 6.03112 14.9412 7.15511C15.0778 8.27911 14.9398 9.41948 14.5389 10.4784C14.1381 11.5373 13.4863 12.4832 12.6395 13.2349C11.7928 13.9866 10.7763 14.5217 9.6773 14.7942C8.57831 15.0667 7.42961 15.0686 6.32975 14.7997C5.22988 14.5307 4.21167 13.999 3.36246 13.25L1 11.1501" stroke="#E9041F" stroke-linecap="round" stroke-linejoin="round"/>
<path d="M5.37493 10.6251H1V15" stroke="#E9041F" stroke-linecap="round" stroke-linejoin="round"/>
</svg>
