<svg width="48" height="48" viewBox="0 0 48 48" fill="none" xmlns="http://www.w3.org/2000/svg">
<circle cx="24" cy="24" r="22" fill="#B22334" stroke="white" stroke-width="4"/>
<path d="M17 36C16.2667 36 15.6391 35.7391 15.1173 35.2173C14.5947 34.6947 14.3333 34.0667 14.3333 33.3333V16H13V13.3333H19.6667V12H27.6667V13.3333H34.3333V16H33V33.3333C33 34.0667 32.7391 34.6947 32.2173 35.2173C31.6947 35.7391 31.0667 36 30.3333 36H17ZM30.3333 16H17V33.3333H30.3333V16ZM19.6667 30.6667H22.3333V18.6667H19.6667V30.6667ZM25 30.6667H27.6667V18.6667H25V30.6667ZM17 16V33.3333V16Z" fill="white"/>
</svg>
