<svg width="149" height="149" viewBox="0 0 149 149" fill="none" xmlns="http://www.w3.org/2000/svg">
<rect x="0.5" y="0.5" width="148" height="148" rx="74" fill="#F3F4F4" stroke="#CACACA" stroke-dasharray="5 5"/>
<path d="M74.2651 80.245C88.7703 80.245 100.539 68.55 100.539 54.1352C100.539 39.7204 88.7703 28.0254 74.2651 28.0254C59.7599 28.0254 47.9916 39.7204 47.9916 54.1352C47.9916 68.55 59.7599 80.245 74.2651 80.245ZM97.6193 86.0472H87.5661C83.5156 87.8966 79.0089 88.9483 74.2651 88.9483C69.5213 88.9483 65.0329 87.8966 60.9641 86.0472H50.9109C38.0113 86.0472 27.5566 96.4367 27.5566 109.256V112.157C27.5566 116.962 31.4794 120.86 36.3145 120.86H112.216C117.051 120.86 120.974 116.962 120.974 112.157V109.256C120.974 96.4367 110.519 86.0472 97.6193 86.0472Z" fill="#B5B5B5"/>
</svg>
