<svg width="200" height="200" fill="#CACACA" viewBox="0 0 200 200" xmlns="http://www.w3.org/2000/svg">
<path d="M100 112.5C131.055 112.5 156.25 87.3047 156.25 56.25C156.25 25.1953 131.055 0 100 0C68.9453 0 43.75 25.1953 43.75 56.25C43.75 87.3047 68.9453 112.5 100 112.5ZM150 125H128.477C119.805 128.984 110.156 131.25 100 131.25C89.8438 131.25 80.2344 128.984 71.5234 125H50C22.3828 125 0 147.383 0 175V181.25C0 191.602 8.39844 200 18.75 200H181.25C191.602 200 200 191.602 200 181.25V175C200 147.383 177.617 125 150 125Z"/>
</svg>
