<svg width="18" height="18" viewBox="0 0 18 18" fill="none" xmlns="http://www.w3.org/2000/svg">
<path fill-rule="evenodd" clip-rule="evenodd" d="M9 1.92857C5.09456 1.92857 1.92857 5.09456 1.92857 9C1.92857 12.9054 5.09456 16.0714 9 16.0714C12.9054 16.0714 16.0714 12.9054 16.0714 9C16.0714 5.09456 12.9054 1.92857 9 1.92857ZM0 9C0 4.02944 4.02944 0 9 0C13.9706 0 18 4.02944 18 9C18 13.9706 13.9706 18 9 18C4.02944 18 0 13.9706 0 9Z" fill="white"/>
<path fill-rule="evenodd" clip-rule="evenodd" d="M8.99944 3.85742C9.532 3.85742 9.96373 4.28915 9.96373 4.82171V9.32171C9.96373 9.85427 9.532 10.286 8.99944 10.286C8.46688 10.286 8.03516 9.85427 8.03516 9.32171V4.82171C8.03516 4.28915 8.46688 3.85742 8.99944 3.85742Z" fill="white"/>
<circle cx="9.00056" cy="12.857" r="1.28571" fill="white"/>
</svg>
